<?xml version="1.0" encoding="UTF-8"?>
<!DOCTYPE svg PUBLIC "-//W3C//DTD SVG 1.1//EN" "http://www.w3.org/Graphics/SVG/1.1/DTD/svg11.dtd">
<svg xmlns="http://www.w3.org/2000/svg" version="1.1" width="9338px" height="2730px" style="shape-rendering:geometricPrecision; text-rendering:geometricPrecision; image-rendering:optimizeQuality; fill-rule:evenodd; clip-rule:evenodd" xmlns:xlink="http://www.w3.org/1999/xlink">
<g><path style="opacity:0.997" fill="#cc5500" d="M 1318.5,-0.5 C 1332.5,-0.5 1346.5,-0.5 1360.5,-0.5C 1456.52,10.0845 1529.02,56.7512 1578,139.5C 1623.22,228.509 1622.56,317.175 1576,405.5C 1522.28,492.968 1443.78,538.635 1340.5,542.5C 1247.58,540.292 1173.41,502.292 1118,428.5C 1064.19,347.879 1053.86,261.879 1087,170.5C 1125.49,80.3499 1192.65,24.8499 1288.5,4C 1298.61,2.24702 1308.61,0.747024 1318.5,-0.5 Z"/></g>
<g><path style="opacity:0.998" fill="#cc2c00" d="M 1987.5,218.5 C 2096.43,216.214 2181.6,259.547 2243,348.5C 2294.6,434.408 2301.27,523.741 2263,616.5C 2220.96,703.959 2152.46,758.126 2057.5,779C 1968.24,793.524 1888.91,772.191 1819.5,715C 1738.94,639.995 1708.78,548.161 1729,439.5C 1751.73,348.779 1805.23,283.279 1889.5,243C 1920.88,229.156 1953.54,220.989 1987.5,218.5 Z"/></g>
<g><path style="opacity:0.997" fill="#cc7e00" d="M 649.5,229.5 C 748.438,227.044 824.605,267.044 878,349.5C 922.102,429.605 923.769,510.605 883,592.5C 843.911,661.157 785.411,702.991 707.5,718C 613.46,730.661 535.626,701.161 474,629.5C 421.644,560.047 407.644,483.381 432,399.5C 460.583,318.584 515.749,265.084 597.5,239C 614.72,234.41 632.054,231.243 649.5,229.5 Z"/></g>
<g><path style="opacity:0.997" fill="#cc9200" d="M -0.5,1054.5 C -0.5,1042.5 -0.5,1030.5 -0.5,1018.5C 8.36719,935.568 48.0339,872.068 118.5,828C 199.117,784.133 280.117,783.467 361.5,826C 452.845,883.537 492.678,966.37 481,1074.5C 464.595,1161.22 416.429,1223.05 336.5,1260C 246.621,1294.16 163.621,1282.16 87.5,1224C 35.3216,1179.48 5.9883,1122.98 -0.5,1054.5 Z"/></g>
<g><path style="opacity:0.992" fill="#6b6b6b" d="M 1432.5,1028.5 C 1471.85,1028.2 1510.85,1031.7 1549.5,1039C 1585.91,1047.02 1620.24,1060.36 1652.5,1079C 1677.22,1093.39 1700.55,1109.72 1722.5,1128C 1740.83,1144.79 1746.66,1165.29 1740,1189.5C 1729.75,1212.03 1712.09,1224.03 1687,1225.5C 1666.16,1223.83 1648.66,1215.33 1634.5,1200C 1605.05,1176.6 1572.38,1158.94 1536.5,1147C 1478.15,1133.08 1419.81,1133.08 1361.5,1147C 1265.29,1177.54 1195.46,1238.38 1152,1329.5C 1115.66,1412.53 1109.32,1497.86 1133,1585.5C 1162.73,1685.5 1224.56,1758 1318.5,1803C 1385.42,1831.36 1454.09,1836.36 1524.5,1818C 1555.74,1808.55 1585.41,1795.55 1613.5,1779C 1628.77,1769.39 1643.77,1759.39 1658.5,1749C 1684.22,1735.87 1707.39,1739.37 1728,1759.5C 1737.58,1773.74 1740.92,1789.41 1738,1806.5C 1735.34,1819.65 1729.18,1830.82 1719.5,1840C 1597.89,1932.99 1462.89,1959.32 1314.5,1919C 1180.97,1874.8 1088.13,1787.3 1036,1656.5C 1004.29,1569.96 996.628,1481.3 1013,1390.5C 1037.15,1271.93 1097.65,1177.1 1194.5,1106C 1265.99,1056.23 1345.32,1030.39 1432.5,1028.5 Z"/></g>
<g><path style="opacity:0.992" fill="#6b6b6b" d="M 2201.5,1040.5 C 2232.89,1035.94 2255.05,1047.94 2268,1076.5C 2375,1331.83 2482,1587.17 2589,1842.5C 2600.87,1874.89 2592.7,1900.72 2564.5,1920C 2535.16,1931.87 2509.66,1926.37 2488,1903.5C 2485.27,1899.76 2482.93,1895.76 2481,1891.5C 2459.89,1838.16 2438.39,1784.99 2416.5,1732C 2281.17,1731.5 2145.83,1731.33 2010.5,1731.5C 1989.35,1783.8 1968.19,1836.13 1947,1888.5C 1931.94,1918.61 1907.78,1930.44 1874.5,1924C 1854.59,1916.75 1841.42,1902.92 1835,1882.5C 1831.64,1870.75 1831.97,1859.08 1836,1847.5C 1944.22,1587.51 2053.22,1327.84 2163,1068.5C 2171.79,1053.54 2184.62,1044.2 2201.5,1040.5 Z M 2214.5,1233.5 C 2216.34,1234.12 2217.5,1235.46 2218,1237.5C 2270.56,1368.95 2323.39,1500.28 2376.5,1631.5C 2268.17,1632.67 2159.83,1632.83 2051.5,1632C 2106.25,1499.33 2160.58,1366.5 2214.5,1233.5 Z"/></g>
<g><path style="opacity:0.994" fill="#6b6b6b" d="M 2769.5,1040.5 C 2807.66,1036.87 2831.16,1053.53 2840,1090.5C 2840.5,1329.5 2840.67,1568.5 2840.5,1807.5C 2980.5,1807.33 3120.5,1807.5 3260.5,1808C 3287.31,1813.47 3303.47,1829.64 3309,1856.5C 3312.72,1886.91 3300.88,1908.74 3273.5,1922C 3266.71,1924.45 3259.71,1925.78 3252.5,1926C 3094.5,1926.67 2936.5,1926.67 2778.5,1926C 2753,1924.01 2735.5,1911.17 2726,1887.5C 2724.21,1881.63 2723.21,1875.63 2723,1869.5C 2722.33,1611.83 2722.33,1354.17 2723,1096.5C 2726,1067.34 2741.5,1048.67 2769.5,1040.5 Z"/></g>
<g><path style="opacity:0.99" fill="#6b6b6b" d="M 3498.5,1040.5 C 3528.97,1036.23 3551.14,1047.56 3565,1074.5C 3567.1,1080.33 3568.43,1086.33 3569,1092.5C 3569.67,1352.83 3569.67,1613.17 3569,1873.5C 3563.25,1906.58 3543.59,1924.25 3510,1926.5C 3482.1,1925.06 3463.1,1911.4 3453,1885.5C 3452.23,1881.85 3451.56,1878.19 3451,1874.5C 3450.33,1613.17 3450.33,1351.83 3451,1090.5C 3456.12,1063.55 3471.96,1046.88 3498.5,1040.5 Z"/></g>
<g><path style="opacity:0.985" fill="#636363" d="M 3972.5,1063.5 C 4018.01,1060.12 4058.35,1072.62 4093.5,1101C 4103.24,1110 4105.08,1120.5 4099,1132.5C 4090.06,1140.86 4079.89,1142.69 4068.5,1138C 4036.92,1109.27 4000.26,1099.61 3958.5,1109C 3910.54,1122.96 3879.04,1153.79 3864,1201.5C 3849.69,1258.79 3863.86,1307.62 3906.5,1348C 3946.78,1378.99 3990.45,1384.66 4037.5,1365C 4050.2,1357.65 4062.87,1350.32 4075.5,1343C 4094.03,1341.53 4102.53,1350.03 4101,1368.5C 4099.26,1375.49 4095.42,1380.99 4089.5,1385C 4036.51,1422.48 3979.51,1429.82 3918.5,1407C 3868.59,1384.02 3835.75,1346.19 3820,1293.5C 3803.11,1226.06 3817.45,1166.39 3863,1114.5C 3893.38,1084.39 3929.88,1067.39 3972.5,1063.5 Z"/></g>
<g><path style="opacity:0.985" fill="#636363" d="M 7222.5,1063.5 C 7273.17,1062.08 7311.67,1082.74 7338,1125.5C 7343.3,1134.02 7343.64,1142.68 7339,1151.5C 7329.65,1160.35 7319.15,1161.85 7307.5,1156C 7301.24,1149.97 7296.07,1143.14 7292,1135.5C 7267.86,1109.9 7238.36,1100.73 7203.5,1108C 7188.29,1110.11 7174.62,1115.78 7162.5,1125C 7146.54,1144.52 7145.37,1165.02 7159,1186.5C 7171.62,1199.23 7186.79,1207.4 7204.5,1211C 7221.43,1214.08 7238.43,1216.74 7255.5,1219C 7282.59,1223.96 7305.75,1236.12 7325,1255.5C 7347.42,1286.09 7352.42,1319.42 7340,1355.5C 7325.35,1384.8 7302.19,1403.97 7270.5,1413C 7216.31,1427.89 7166.64,1418.89 7121.5,1386C 7106.69,1373.7 7096.69,1358.37 7091.5,1340C 7095.23,1324.97 7104.9,1318.64 7120.5,1321C 7130.97,1324.81 7138.14,1331.97 7142,1342.5C 7155.71,1358.45 7172.88,1368.95 7193.5,1374C 7218.47,1379.6 7242.8,1377.6 7266.5,1368C 7296.5,1353.48 7306.34,1330.32 7296,1298.5C 7285.69,1277.88 7269.19,1265.04 7246.5,1260C 7225.75,1256.82 7205.08,1253.16 7184.5,1249C 7154.44,1241.08 7130.94,1224.25 7114,1198.5C 7100,1170.14 7100,1141.81 7114,1113.5C 7130.93,1089.96 7153.77,1075.12 7182.5,1069C 7195.86,1066.24 7209.19,1064.41 7222.5,1063.5 Z"/></g>
<g><path style="opacity:0.989" fill="#636363" d="M 4195.5,1067.5 C 4225.17,1067.33 4254.84,1067.5 4284.5,1068C 4332.2,1070.4 4365.7,1093.24 4385,1136.5C 4398.01,1175.09 4392.68,1210.75 4369,1243.5C 4358.71,1255.22 4346.55,1264.39 4332.5,1271C 4356.43,1308.59 4379.93,1346.42 4403,1384.5C 4407.47,1399.72 4402.31,1409.89 4387.5,1415C 4377.12,1416.72 4368.62,1413.55 4362,1405.5C 4336.88,1364.08 4311.38,1322.92 4285.5,1282C 4264.17,1281.5 4242.84,1281.33 4221.5,1281.5C 4221.67,1319.5 4221.5,1357.5 4221,1395.5C 4216.59,1411.8 4206.09,1417.96 4189.5,1414C 4182.24,1411.08 4177.41,1405.91 4175,1398.5C 4174.33,1293.83 4174.33,1189.17 4175,1084.5C 4178.43,1074.56 4185.26,1068.89 4195.5,1067.5 Z M 4221.5,1111.5 C 4243.5,1111.33 4265.5,1111.5 4287.5,1112C 4324.14,1118.48 4343.81,1140.31 4346.5,1177.5C 4344.5,1209 4328.17,1228.5 4297.5,1236C 4292.86,1236.83 4288.19,1237.5 4283.5,1238C 4262.84,1238.5 4242.17,1238.67 4221.5,1238.5C 4221.5,1196.17 4221.5,1153.83 4221.5,1111.5 Z"/></g>
<g><path style="opacity:0.983" fill="#636363" d="M 4476.5,1067.5 C 4545.5,1067.33 4614.5,1067.5 4683.5,1068C 4692.03,1069.53 4697.86,1074.36 4701,1082.5C 4704.33,1097.36 4698.83,1106.86 4684.5,1111C 4623.5,1111.5 4562.5,1111.67 4501.5,1111.5C 4501.5,1147.17 4501.5,1182.83 4501.5,1218.5C 4546.17,1218.33 4590.83,1218.5 4635.5,1219C 4651.7,1225.91 4655.86,1237.41 4648,1253.5C 4644.57,1257.27 4640.41,1259.77 4635.5,1261C 4590.83,1261.5 4546.17,1261.67 4501.5,1261.5C 4501.5,1298.5 4501.5,1335.5 4501.5,1372.5C 4563.17,1372.33 4624.83,1372.5 4686.5,1373C 4700.63,1378.66 4705.13,1388.83 4700,1403.5C 4696.41,1410.09 4690.91,1413.93 4683.5,1415C 4613.5,1415.67 4543.5,1415.67 4473.5,1415C 4463.34,1412.84 4457.18,1406.68 4455,1396.5C 4454.33,1293.17 4454.33,1189.83 4455,1086.5C 4458.05,1075.41 4465.22,1069.07 4476.5,1067.5 Z"/></g>
<g><path style="opacity:0.986" fill="#636363" d="M 4874.5,1067.5 C 4887.52,1066.75 4896.35,1072.42 4901,1084.5C 4943.28,1185.4 4985.28,1286.4 5027,1387.5C 5029.06,1400.21 5024.23,1409.04 5012.5,1414C 4999.72,1417.41 4989.89,1413.58 4983,1402.5C 4974.63,1381.59 4966.13,1360.76 4957.5,1340C 4904.5,1339.5 4851.5,1339.33 4798.5,1339.5C 4791.17,1359.33 4783.33,1379 4775,1398.5C 4767.51,1414.22 4755.68,1418.72 4739.5,1412C 4730.49,1405.17 4727.32,1396.33 4730,1385.5C 4772.37,1282.06 4815.7,1179.06 4860,1076.5C 4864.02,1071.95 4868.85,1068.95 4874.5,1067.5 Z M 4878.5,1143.5 C 4899.47,1195.4 4920.47,1247.4 4941.5,1299.5C 4899.5,1300.83 4857.5,1300.83 4815.5,1299.5C 4836.9,1247.62 4857.9,1195.62 4878.5,1143.5 Z"/></g>
<g><path style="opacity:0.978" fill="#646464" d="M 5022.5,1067.5 C 5105.54,1067.01 5188.54,1067.51 5271.5,1069C 5284.51,1075.98 5288.35,1086.48 5283,1100.5C 5280.45,1104.72 5276.95,1107.89 5272.5,1110C 5237.87,1111.47 5203.21,1111.97 5168.5,1111.5C 5168.67,1206.83 5168.5,1302.17 5168,1397.5C 5162.48,1412.34 5151.98,1417.84 5136.5,1414C 5128.81,1410.98 5123.98,1405.48 5122,1397.5C 5121.5,1302.17 5121.33,1206.83 5121.5,1111.5C 5086.78,1111.97 5052.12,1111.47 5017.5,1110C 5006.04,1104.32 5001.87,1095.15 5005,1082.5C 5008.31,1074.35 5014.14,1069.35 5022.5,1067.5 Z"/></g>
<g><path style="opacity:0.984" fill="#636363" d="M 5356.5,1067.5 C 5369.9,1067.43 5378.4,1073.77 5382,1086.5C 5382.67,1190.17 5382.67,1293.83 5382,1397.5C 5376.48,1412.34 5365.98,1417.84 5350.5,1414C 5342.8,1410.97 5337.97,1405.47 5336,1397.5C 5335.33,1293.5 5335.33,1189.5 5336,1085.5C 5338.98,1075.01 5345.81,1069.01 5356.5,1067.5 Z"/></g>
<g><path style="opacity:0.984" fill="#636363" d="M 5453.5,1067.5 C 5463.62,1067.14 5471.45,1071.14 5477,1079.5C 5514.14,1169.25 5551.47,1258.91 5589,1348.5C 5627.67,1257.83 5666.33,1167.17 5705,1076.5C 5714.09,1067.18 5724.59,1065.35 5736.5,1071C 5744.15,1077.55 5746.65,1085.72 5744,1095.5C 5698.87,1199.76 5653.2,1303.76 5607,1407.5C 5597.34,1416.89 5586.84,1417.89 5575.5,1410.5C 5574.19,1408.68 5572.69,1407.02 5571,1405.5C 5527.33,1306.17 5483.67,1206.83 5440,1107.5C 5434.83,1097.83 5433.83,1087.83 5437,1077.5C 5441.09,1071.71 5446.59,1068.38 5453.5,1067.5 Z"/></g>
<g><path style="opacity:0.983" fill="#646464" d="M 5818.5,1067.5 C 5887.5,1067.33 5956.5,1067.5 6025.5,1068C 6041.77,1072.03 6047.6,1082.2 6043,1098.5C 6039.9,1105.27 6034.74,1109.43 6027.5,1111C 5966.5,1111.5 5905.5,1111.67 5844.5,1111.5C 5844.5,1147.17 5844.5,1182.83 5844.5,1218.5C 5889.17,1218.33 5933.83,1218.5 5978.5,1219C 5994.1,1225.8 5998.27,1236.96 5991,1252.5C 5987.91,1256.92 5983.74,1259.76 5978.5,1261C 5933.83,1261.5 5889.17,1261.67 5844.5,1261.5C 5844.5,1298.5 5844.5,1335.5 5844.5,1372.5C 5906.17,1372.33 5967.83,1372.5 6029.5,1373C 6041.74,1377.64 6046.57,1386.47 6044,1399.5C 6041.31,1408.19 6035.48,1413.35 6026.5,1415C 5956.5,1415.67 5886.5,1415.67 5816.5,1415C 5806.75,1412.92 5800.59,1407.08 5798,1397.5C 5797.33,1293.5 5797.33,1189.5 5798,1085.5C 5800.99,1075.01 5807.82,1069.01 5818.5,1067.5 Z"/></g>
<g><path style="opacity:0.986" fill="#636363" d="M 6347.5,1067.5 C 6359.51,1066.75 6368.01,1071.75 6373,1082.5C 6415.61,1184.05 6457.94,1285.72 6500,1387.5C 6500.81,1406.69 6491.64,1415.86 6472.5,1415C 6463.21,1413.04 6457.04,1407.54 6454,1398.5C 6446.3,1378.93 6438.46,1359.43 6430.5,1340C 6377.5,1339.17 6324.5,1339.33 6271.5,1340.5C 6263.06,1360.39 6254.89,1380.39 6247,1400.5C 6240.33,1412.75 6230.17,1417.25 6216.5,1414C 6202.12,1405.69 6198.29,1393.85 6205,1378.5C 6246.72,1280 6288.06,1181.33 6329,1082.5C 6332.99,1074.66 6339.16,1069.66 6347.5,1067.5 Z M 6351.5,1144.5 C 6372.67,1195.99 6393.67,1247.65 6414.5,1299.5C 6372.51,1300.5 6330.51,1300.83 6288.5,1300.5C 6309.11,1248.35 6330.11,1196.35 6351.5,1144.5 Z"/></g>
<g><path style="opacity:0.987" fill="#636363" d="M 6571.5,1067.5 C 6601.17,1067.33 6630.84,1067.5 6660.5,1068C 6705.99,1069.97 6738.82,1091.14 6759,1131.5C 6768.27,1156.3 6769.93,1181.64 6764,1207.5C 6755.15,1236.51 6736.99,1257.17 6709.5,1269.5C 6709.49,1271.31 6709.99,1272.98 6711,1274.5C 6734.17,1310.83 6756.83,1347.5 6779,1384.5C 6783.62,1402.28 6776.96,1412.61 6759,1415.5C 6750.97,1415.48 6744.3,1412.48 6739,1406.5C 6713.29,1364.92 6687.46,1323.42 6661.5,1282C 6640.17,1281.5 6618.84,1281.33 6597.5,1281.5C 6597.98,1321.21 6597.48,1360.88 6596,1400.5C 6587.34,1415.71 6575.18,1419.21 6559.5,1411C 6555.07,1407.91 6552.24,1403.74 6551,1398.5C 6550.33,1293.83 6550.33,1189.17 6551,1084.5C 6554.52,1074.68 6561.35,1069.01 6571.5,1067.5 Z M 6597.5,1111.5 C 6619.5,1111.33 6641.5,1111.5 6663.5,1112C 6691.96,1115.79 6710.79,1131.29 6720,1158.5C 6727.89,1198.57 6712.39,1224.41 6673.5,1236C 6668.86,1236.83 6664.19,1237.5 6659.5,1238C 6638.84,1238.5 6618.17,1238.67 6597.5,1238.5C 6597.5,1196.17 6597.5,1153.83 6597.5,1111.5 Z"/></g>
<g><path style="opacity:0.983" fill="#636363" d="M 6810.5,1067.5 C 6892.5,1067.33 6974.5,1067.5 7056.5,1068C 7067.37,1071.04 7073.37,1078.21 7074.5,1089.5C 7074,1098.82 7069.66,1105.66 7061.5,1110C 7026.87,1111.47 6992.21,1111.97 6957.5,1111.5C 6957.67,1206.5 6957.5,1301.5 6957,1396.5C 6949.98,1415.06 6937.48,1419.89 6919.5,1411C 6915.07,1407.91 6912.24,1403.74 6911,1398.5C 6910.5,1302.83 6910.33,1207.17 6910.5,1111.5C 6875.78,1111.97 6841.12,1111.47 6806.5,1110C 6795.05,1104.36 6790.88,1095.19 6794,1082.5C 6797.17,1074.82 6802.67,1069.82 6810.5,1067.5 Z"/></g>
<g><path style="opacity:0.997" fill="#cba700" d="M -0.5,1761.5 C -0.5,1747.83 -0.5,1734.17 -0.5,1720.5C 10.9038,1630.92 57.5705,1567.09 139.5,1529C 217.892,1499.38 291.892,1507.72 361.5,1554C 438.854,1614.02 469.021,1692.52 452,1789.5C 433.427,1865.41 388.594,1919.57 317.5,1952C 248.833,1978.53 181.833,1974.86 116.5,1941C 48.2672,1900.4 9.26724,1840.57 -0.5,1761.5 Z"/></g>
<g><path style="opacity:0.985" fill="#636363" d="M 5773.5,1544.5 C 5830.78,1537.89 5874.28,1558.89 5904,1607.5C 5911.3,1625.42 5905.47,1636.42 5886.5,1640.5C 5880.26,1639.81 5874.59,1637.64 5869.5,1634C 5864.63,1627.76 5860.13,1621.26 5856,1614.5C 5838.56,1595.2 5816.72,1585.87 5790.5,1586.5C 5767.88,1585.82 5747.21,1591.65 5728.5,1604C 5712.38,1622.16 5710.21,1641.99 5722,1663.5C 5732.25,1676.38 5745.41,1684.88 5761.5,1689C 5784.08,1693.49 5806.75,1697.49 5829.5,1701C 5859.79,1708.04 5883.29,1724.54 5900,1750.5C 5913.3,1778.13 5914.97,1806.47 5905,1835.5C 5890.31,1864.86 5867.14,1884.02 5835.5,1893C 5781.71,1907.97 5732.38,1899.3 5687.5,1867C 5678.88,1859.39 5671.38,1850.89 5665,1841.5C 5661.19,1835.05 5658.36,1828.22 5656.5,1821C 5657.69,1809.47 5664.03,1802.81 5675.5,1801C 5685.36,1799.84 5693.53,1803.01 5700,1810.5C 5709.95,1829.58 5725.12,1842.74 5745.5,1850C 5776.1,1861.06 5806.1,1859.72 5835.5,1846C 5865.57,1827.9 5872.74,1803.07 5857,1771.5C 5846.26,1754.78 5831.09,1744.28 5811.5,1740C 5790.4,1736.91 5769.4,1733.25 5748.5,1729C 5719.55,1721.29 5696.72,1705.13 5680,1680.5C 5666.67,1654.92 5665,1628.58 5675,1601.5C 5685.92,1579.79 5702.75,1564.62 5725.5,1556C 5741.19,1550.3 5757.19,1546.47 5773.5,1544.5 Z"/></g>
<g><path style="opacity:0.985" fill="#636363" d="M 7510.5,1544.5 C 7548.48,1539.75 7582.48,1548.92 7612.5,1572C 7625.4,1583.89 7635.57,1597.72 7643,1613.5C 7644.93,1633.24 7636.09,1641.74 7616.5,1639C 7613.38,1637.94 7610.38,1636.61 7607.5,1635C 7601.97,1628.1 7596.8,1620.93 7592,1613.5C 7574.63,1594.87 7553.13,1585.87 7527.5,1586.5C 7504.88,1585.82 7484.21,1591.65 7465.5,1604C 7452.88,1616.75 7448.71,1631.91 7453,1649.5C 7458.25,1665.76 7468.75,1677.26 7484.5,1684C 7489.17,1685.67 7493.83,1687.33 7498.5,1689C 7521.08,1693.49 7543.75,1697.49 7566.5,1701C 7596.79,1708.04 7620.29,1724.54 7637,1750.5C 7650.26,1778.1 7651.93,1806.43 7642,1835.5C 7626.71,1866.44 7602.21,1885.94 7568.5,1894C 7515.98,1907.58 7467.98,1898.58 7424.5,1867C 7411.62,1856.12 7401.78,1842.95 7395,1827.5C 7391.66,1812.7 7397.49,1803.86 7412.5,1801C 7422.36,1799.84 7430.53,1803.01 7437,1810.5C 7445.68,1828.18 7459.18,1840.68 7477.5,1848C 7509.51,1861.24 7541.18,1860.58 7572.5,1846C 7597,1832.83 7606.17,1812.66 7600,1785.5C 7591.5,1762.34 7575.34,1747.51 7551.5,1741C 7529.47,1737.16 7507.47,1733.16 7485.5,1729C 7456.55,1721.29 7433.72,1705.13 7417,1680.5C 7403.63,1654.92 7401.96,1628.59 7412,1601.5C 7421.56,1582.28 7436.06,1568.11 7455.5,1559C 7473.26,1551.48 7491.59,1546.65 7510.5,1544.5 Z"/></g>
<g><path style="opacity:0.987" fill="#636363" d="M 3846.5,1548.5 C 3856.62,1547.04 3865.12,1550.04 3872,1557.5C 3873.28,1559.72 3874.28,1562.05 3875,1564.5C 3875.5,1659.17 3875.67,1753.83 3875.5,1848.5C 3930.5,1848.33 3985.5,1848.5 4040.5,1849C 4055.32,1852.8 4061.49,1862.3 4059,1877.5C 4056.49,1886.68 4050.66,1892.51 4041.5,1895C 3976.5,1895.67 3911.5,1895.67 3846.5,1895C 3837.67,1892.83 3832.17,1887.33 3830,1878.5C 3829.33,1774.17 3829.33,1669.83 3830,1565.5C 3832.31,1556.69 3837.81,1551.02 3846.5,1548.5 Z"/></g>
<g><path style="opacity:0.987" fill="#646464" d="M 4130.5,1548.5 C 4202.17,1548.33 4273.83,1548.5 4345.5,1549C 4359.25,1554.33 4364.08,1564.17 4360,1578.5C 4356.94,1585.23 4351.77,1589.39 4344.5,1591C 4283.5,1591.5 4222.5,1591.67 4161.5,1591.5C 4161.5,1627.17 4161.5,1662.83 4161.5,1698.5C 4205.5,1698.33 4249.5,1698.5 4293.5,1699C 4305.12,1701.45 4311.12,1708.62 4311.5,1720.5C 4310.79,1731.04 4305.45,1737.87 4295.5,1741C 4250.83,1741.5 4206.17,1741.67 4161.5,1741.5C 4161.5,1778.5 4161.5,1815.5 4161.5,1852.5C 4222.83,1852.33 4284.17,1852.5 4345.5,1853C 4358.16,1856.8 4363.32,1865.3 4361,1878.5C 4358.63,1888.2 4352.46,1893.7 4342.5,1895C 4272.5,1895.67 4202.5,1895.67 4132.5,1895C 4123.77,1892.61 4117.94,1887.11 4115,1878.5C 4114.33,1773.83 4114.33,1669.17 4115,1564.5C 4117.69,1556.65 4122.85,1551.32 4130.5,1548.5 Z"/></g>
<g><path style="opacity:0.986" fill="#636363" d="M 4530.5,1548.5 C 4541.14,1546.44 4549.98,1549.44 4557,1557.5C 4599.94,1659.05 4642.61,1760.72 4685,1862.5C 4690.31,1884.19 4681.81,1895.03 4659.5,1895C 4653.16,1893.75 4647.99,1890.58 4644,1885.5C 4635.17,1863.83 4626.33,1842.17 4617.5,1820.5C 4564.5,1819.17 4511.5,1819.17 4458.5,1820.5C 4449.72,1841.05 4441.22,1861.72 4433,1882.5C 4423.76,1896.02 4411.93,1898.86 4397.5,1891C 4388.46,1882.34 4386.29,1872.17 4391,1860.5C 4433.14,1759.75 4475.47,1659.09 4518,1558.5C 4521.49,1554.16 4525.66,1550.83 4530.5,1548.5 Z M 4537.5,1625.5 C 4538.5,1625.47 4539.16,1625.97 4539.5,1627C 4560.18,1678.02 4580.84,1729.02 4601.5,1780C 4559.17,1780.67 4516.83,1780.67 4474.5,1780C 4495.92,1728.65 4516.92,1677.15 4537.5,1625.5 Z"/></g>
<g><path style="opacity:0.98" fill="#636363" d="M 4753.5,1548.5 C 4789.5,1548.33 4825.5,1548.5 4861.5,1549C 4933.36,1557.31 4981.19,1595.48 5005,1663.5C 5015.89,1701.06 5016.22,1738.73 5006,1776.5C 4981.72,1848.59 4931.56,1888.09 4855.5,1895C 4821.83,1895.67 4788.17,1895.67 4754.5,1895C 4743.77,1891.39 4737.93,1883.89 4737,1872.5C 4736.33,1771.83 4736.33,1671.17 4737,1570.5C 4737.79,1559.56 4743.29,1552.22 4753.5,1548.5 Z M 4784.5,1589.5 C 4806.5,1589.33 4828.5,1589.5 4850.5,1590C 4912.78,1596.61 4950.95,1630.45 4965,1691.5C 4973.89,1737.59 4963.56,1778.59 4934,1814.5C 4912.96,1836.77 4887.12,1849.61 4856.5,1853C 4832.5,1853.5 4808.5,1853.67 4784.5,1853.5C 4784.5,1765.5 4784.5,1677.5 4784.5,1589.5 Z"/></g>
<g><path style="opacity:0.985" fill="#636363" d="M 5101.5,1548.5 C 5173.17,1548.33 5244.83,1548.5 5316.5,1549C 5330.24,1554.86 5334.74,1565.02 5330,1579.5C 5326.58,1585.58 5321.41,1589.41 5314.5,1591C 5253.5,1591.5 5192.5,1591.67 5131.5,1591.5C 5131.5,1627.17 5131.5,1662.83 5131.5,1698.5C 5175.83,1698.33 5220.17,1698.5 5264.5,1699C 5275.32,1701.82 5280.99,1708.82 5281.5,1720C 5281.81,1731.35 5276.47,1738.35 5265.5,1741C 5220.83,1741.5 5176.17,1741.67 5131.5,1741.5C 5131.5,1778.5 5131.5,1815.5 5131.5,1852.5C 5193.17,1852.33 5254.83,1852.5 5316.5,1853C 5330.24,1858.84 5334.74,1869.01 5330,1883.5C 5326.41,1890.09 5320.91,1893.93 5313.5,1895C 5243.17,1895.67 5172.83,1895.67 5102.5,1895C 5093.33,1892.5 5087.5,1886.67 5085,1877.5C 5084.33,1773.5 5084.33,1669.5 5085,1565.5C 5087.38,1556.62 5092.88,1550.95 5101.5,1548.5 Z"/></g>
<g><path style="opacity:0.991" fill="#636363" d="M 5412.5,1548.5 C 5447.17,1548.33 5481.83,1548.5 5516.5,1549C 5570.79,1557.29 5602.62,1588.45 5612,1642.5C 5616.69,1691.97 5597.19,1728.14 5553.5,1751C 5577.4,1788.57 5600.9,1826.4 5624,1864.5C 5628.47,1879.74 5623.3,1889.9 5608.5,1895C 5598.69,1896.73 5590.53,1893.9 5584,1886.5C 5558.29,1844.92 5532.46,1803.42 5506.5,1762C 5485.17,1761.5 5463.84,1761.33 5442.5,1761.5C 5442.98,1801.21 5442.48,1840.88 5441,1880.5C 5436.87,1890.23 5429.54,1895.23 5419,1895.5C 5407.38,1895.21 5399.71,1889.55 5396,1878.5C 5395.33,1773.83 5395.33,1669.17 5396,1564.5C 5398.79,1556.21 5404.29,1550.88 5412.5,1548.5 Z M 5442.5,1591.5 C 5464.5,1591.33 5486.5,1591.5 5508.5,1592C 5536.96,1595.79 5555.79,1611.29 5565,1638.5C 5572.89,1678.57 5557.39,1704.41 5518.5,1716C 5513.86,1716.83 5509.19,1717.5 5504.5,1718C 5483.84,1718.5 5463.17,1718.67 5442.5,1718.5C 5442.5,1676.17 5442.5,1633.83 5442.5,1591.5 Z"/></g>
<g><path style="opacity:0.985" fill="#636363" d="M 5997.5,1548.5 C 6011.13,1545.67 6020.96,1550.33 6027,1562.5C 6028.47,1607.79 6028.97,1653.13 6028.5,1698.5C 6096.83,1698.5 6165.17,1698.5 6233.5,1698.5C 6233.33,1654.17 6233.5,1609.83 6234,1565.5C 6237.3,1554.01 6244.97,1548.34 6257,1548.5C 6268.49,1548.24 6275.82,1553.57 6279,1564.5C 6279.67,1669.5 6279.67,1774.5 6279,1879.5C 6275.41,1889.96 6268.08,1895.3 6257,1895.5C 6244.94,1895.11 6237.27,1889.11 6234,1877.5C 6233.5,1831.83 6233.33,1786.17 6233.5,1740.5C 6165.17,1740.5 6096.83,1740.5 6028.5,1740.5C 6028.98,1787.21 6028.48,1833.87 6027,1880.5C 6022.92,1890.21 6015.59,1895.21 6005,1895.5C 5993.38,1895.21 5985.71,1889.55 5982,1878.5C 5981.33,1773.83 5981.33,1669.17 5982,1564.5C 5984.69,1556.65 5989.85,1551.32 5997.5,1548.5 Z"/></g>
<g><path style="opacity:0.981" fill="#646464" d="M 6384.5,1548.5 C 6398.83,1545.91 6408.66,1551.24 6414,1564.5C 6414.67,1669.17 6414.67,1773.83 6414,1878.5C 6408.3,1893.1 6397.8,1898.27 6382.5,1894C 6374.25,1890.08 6369.42,1883.58 6368,1874.5C 6367.33,1772.5 6367.33,1670.5 6368,1568.5C 6369.7,1558.64 6375.2,1551.97 6384.5,1548.5 Z"/></g>
<g><path style="opacity:0.983" fill="#636363" d="M 6519.5,1548.5 C 6556.5,1548.33 6593.5,1548.5 6630.5,1549C 6686.08,1557.24 6718.58,1589.08 6728,1644.5C 6732.7,1677.04 6725.7,1706.71 6707,1733.5C 6685.08,1759.71 6656.91,1773.54 6622.5,1775C 6598.17,1775.5 6573.84,1775.67 6549.5,1775.5C 6549.98,1810.9 6549.48,1846.23 6548,1881.5C 6542.3,1892.77 6533.13,1897.27 6520.5,1895C 6510.64,1892.12 6504.81,1885.62 6503,1875.5C 6502.33,1772.83 6502.33,1670.17 6503,1567.5C 6504.46,1557.54 6509.96,1551.21 6519.5,1548.5 Z M 6549.5,1591.5 C 6574.5,1591.33 6599.5,1591.5 6624.5,1592C 6662.97,1599.91 6682.64,1623.57 6683.5,1663C 6682.04,1701.46 6662.37,1724.13 6624.5,1731C 6599.5,1731.5 6574.5,1731.67 6549.5,1731.5C 6549.5,1684.83 6549.5,1638.17 6549.5,1591.5 Z"/></g>
<g><path style="opacity:0.983" fill="#636363" d="M 6926.5,1548.5 C 6937.08,1546.68 6945.92,1549.68 6953,1557.5C 6954.29,1560.41 6955.29,1563.41 6956,1566.5C 6956.67,1670.17 6956.67,1773.83 6956,1877.5C 6949.01,1894.97 6936.85,1899.8 6919.5,1892C 6914.69,1888.21 6911.53,1883.38 6910,1877.5C 6909.33,1773.5 6909.33,1669.5 6910,1565.5C 6912.35,1556.65 6917.85,1550.99 6926.5,1548.5 Z"/></g>
<g><path style="opacity:0.99" fill="#636363" d="M 7060.5,1548.5 C 7069.95,1546.74 7078.12,1549.07 7085,1555.5C 7149.33,1641.17 7213.67,1726.83 7278,1812.5C 7278.33,1729.83 7278.67,1647.17 7279,1564.5C 7281.5,1556.67 7286.67,1551.5 7294.5,1549C 7305.9,1546.29 7315.06,1549.46 7322,1558.5C 7322.67,1560.5 7323.33,1562.5 7324,1564.5C 7324.67,1669.17 7324.67,1773.83 7324,1878.5C 7319.75,1891.22 7310.91,1896.72 7297.5,1895C 7291.16,1893.75 7285.99,1890.58 7282,1885.5C 7218.33,1800.83 7154.67,1716.17 7091,1631.5C 7090.67,1713.83 7090.33,1796.17 7090,1878.5C 7084.3,1893.1 7073.8,1898.27 7058.5,1894C 7051.81,1890.82 7047.31,1885.65 7045,1878.5C 7044.33,1773.83 7044.33,1669.17 7045,1564.5C 7047.69,1556.65 7052.85,1551.32 7060.5,1548.5 Z"/></g>
<g><path style="opacity:0.985" fill="#646464" d="M 7677.5,1548.5 C 7761.17,1548.33 7844.83,1548.5 7928.5,1549C 7940.73,1553.62 7945.57,1562.46 7943,1575.5C 7940.99,1582.18 7936.82,1587.01 7930.5,1590C 7895.87,1591.47 7861.21,1591.97 7826.5,1591.5C 7826.67,1687.17 7826.5,1782.83 7826,1878.5C 7820.23,1893.13 7809.73,1898.3 7794.5,1894C 7786.25,1890.08 7781.42,1883.58 7780,1874.5C 7779.5,1780.17 7779.33,1685.83 7779.5,1591.5C 7744.79,1591.97 7710.13,1591.47 7675.5,1590C 7663.88,1583.72 7660.05,1574.22 7664,1561.5C 7666.44,1554.89 7670.94,1550.56 7677.5,1548.5 Z"/></g>
<g><path style="opacity:0.991" fill="#636363" d="M 8010.5,1548.5 C 8024.83,1545.91 8034.66,1551.24 8040,1564.5C 8040.67,1669.17 8040.67,1773.83 8040,1878.5C 8034.3,1893.1 8023.8,1898.27 8008.5,1894C 8000.68,1890.22 7995.85,1884.05 7994,1875.5C 7993.33,1772.83 7993.33,1670.17 7994,1567.5C 7995.46,1557.54 8000.96,1551.21 8010.5,1548.5 Z"/></g>
<g><path style="opacity:0.985" fill="#646464" d="M 8105.5,1548.5 C 8189.5,1548.33 8273.5,1548.5 8357.5,1549C 8371.6,1556.05 8375.43,1566.89 8369,1581.5C 8366.4,1585.39 8362.9,1588.22 8358.5,1590C 8324.22,1591.47 8289.88,1591.97 8255.5,1591.5C 8255.67,1686.17 8255.5,1780.83 8255,1875.5C 8252.6,1888.2 8244.93,1894.87 8232,1895.5C 8220.38,1895.21 8212.71,1889.55 8209,1878.5C 8208.5,1782.83 8208.33,1687.17 8208.5,1591.5C 8173.78,1591.97 8139.12,1591.47 8104.5,1590C 8095.51,1586.19 8090.84,1579.36 8090.5,1569.5C 8091.36,1559.43 8096.36,1552.43 8105.5,1548.5 Z"/></g>
<g><path style="opacity:0.983" fill="#636363" d="M 8438.5,1548.5 C 8446.7,1547.46 8454.37,1548.96 8461.5,1553C 8466,1557.17 8468.5,1562.33 8469,1568.5C 8469.33,1642.5 8469.67,1716.5 8470,1790.5C 8477.21,1822.38 8496.37,1843.55 8527.5,1854C 8561.3,1864.16 8593.97,1861.16 8625.5,1845C 8646.33,1831.86 8658.5,1813.02 8662,1788.5C 8662.33,1714.5 8662.67,1640.5 8663,1566.5C 8664.72,1557.11 8670.22,1551.28 8679.5,1549C 8695.51,1545.74 8705.35,1551.91 8709,1567.5C 8709.97,1644.19 8709.64,1720.85 8708,1797.5C 8700.31,1839.18 8677.48,1869.35 8639.5,1888C 8599.11,1904.22 8557.78,1906.88 8515.5,1896C 8474.47,1884.63 8445.64,1859.47 8429,1820.5C 8426.06,1812.05 8424.06,1803.39 8423,1794.5C 8422.33,1717.83 8422.33,1641.17 8423,1564.5C 8425.69,1556.65 8430.85,1551.32 8438.5,1548.5 Z"/></g>
<g><path style="opacity:0.985" fill="#636363" d="M 8774.5,1548.5 C 8858.17,1548.33 8941.83,1548.5 9025.5,1549C 9035.38,1552.4 9040.38,1559.4 9040.5,1570C 9040.44,1579.45 9036.11,1586.12 9027.5,1590C 8992.87,1591.47 8958.21,1591.97 8923.5,1591.5C 8923.67,1687.17 8923.5,1782.83 8923,1878.5C 8918.12,1891.86 8908.62,1897.36 8894.5,1895C 8884.89,1892.39 8879.05,1886.22 8877,1876.5C 8876.5,1781.5 8876.33,1686.5 8876.5,1591.5C 8841.79,1591.97 8807.13,1591.47 8772.5,1590C 8760.63,1583.41 8756.8,1573.58 8761,1560.5C 8763.85,1554.51 8768.35,1550.51 8774.5,1548.5 Z"/></g>
<g><path style="opacity:0.989" fill="#636363" d="M 9337.5,1563.5 C 9337.5,1567.83 9337.5,1572.17 9337.5,1576.5C 9334.76,1584.57 9329.09,1589.4 9320.5,1591C 9259.5,1591.5 9198.5,1591.67 9137.5,1591.5C 9137.5,1627.17 9137.5,1662.83 9137.5,1698.5C 9181.83,1698.33 9226.17,1698.5 9270.5,1699C 9284.03,1703.21 9289.53,1712.38 9287,1726.5C 9284.72,1734.44 9279.56,1739.28 9271.5,1741C 9226.83,1741.5 9182.17,1741.67 9137.5,1741.5C 9137.5,1778.5 9137.5,1815.5 9137.5,1852.5C 9199.17,1852.33 9260.83,1852.5 9322.5,1853C 9330.05,1855.39 9335.05,1860.22 9337.5,1867.5C 9337.5,1871.5 9337.5,1875.5 9337.5,1879.5C 9334.51,1887.98 9328.51,1893.15 9319.5,1895C 9249.17,1895.67 9178.83,1895.67 9108.5,1895C 9099.33,1892.5 9093.5,1886.67 9091,1877.5C 9090.33,1773.83 9090.33,1670.17 9091,1566.5C 9092.72,1557.11 9098.22,1551.28 9107.5,1549C 9179.17,1548.33 9250.83,1548.33 9322.5,1549C 9330.02,1551.35 9335.02,1556.18 9337.5,1563.5 Z"/></g>
<g><path style="opacity:0.997" fill="#b4b702" d="M 612.5,2114.5 C 698.622,2110.9 764.122,2145.57 809,2218.5C 843.288,2285.67 842.955,2352.67 808,2419.5C 760.71,2493.89 692.877,2527.39 604.5,2520C 521.876,2506.27 466.042,2460.1 437,2381.5C 416.595,2310.91 428.595,2246.57 473,2188.5C 509.871,2145.81 556.371,2121.15 612.5,2114.5 Z"/></g>
<g><path style="opacity:0.997" fill="#dcdf38" d="M 1963.5,2195.5 C 2021.48,2195.73 2065.98,2220.06 2097,2268.5C 2123.88,2317.69 2124.21,2367.02 2098,2416.5C 2068.88,2464.49 2026.05,2489.49 1969.5,2491.5C 1905.63,2488.5 1860.13,2458.16 1833,2400.5C 1812.81,2345.52 1820.47,2294.85 1856,2248.5C 1884.68,2216.24 1920.52,2198.57 1963.5,2195.5 Z"/></g>
<g><path style="opacity:0.997" fill="#c7ca1b" d="M 1310.5,2729.5 C 1300.83,2729.5 1291.17,2729.5 1281.5,2729.5C 1207.21,2720.38 1155.38,2681.38 1126,2612.5C 1103.62,2544.46 1114.95,2482.79 1160,2427.5C 1215.1,2371.01 1280.6,2354.18 1356.5,2377C 1415.41,2399.96 1453.91,2441.79 1472,2502.5C 1487.92,2578.05 1466.75,2640.88 1408.5,2691C 1379.43,2713.04 1346.76,2725.87 1310.5,2729.5 Z"/></g>
</svg>
