<?xml version="1.0" encoding="UTF-8"?>
<!DOCTYPE svg PUBLIC "-//W3C//DTD SVG 1.1//EN" "http://www.w3.org/Graphics/SVG/1.1/DTD/svg11.dtd">
<svg xmlns="http://www.w3.org/2000/svg" version="1.1" width="600px" height="600px" style="shape-rendering:geometricPrecision; text-rendering:geometricPrecision; image-rendering:optimizeQuality; fill-rule:evenodd; clip-rule:evenodd" xmlns:xlink="http://www.w3.org/1999/xlink">
<g><path style="opacity:0.994" fill="#000000" d="M 497.5,497.5 C 478.184,430.01 435.851,383.177 370.5,357C 351.285,350.631 331.619,346.297 311.5,344C 362.532,336.302 395.699,307.802 411,258.5C 421.519,207.731 406.352,166.565 365.5,135C 325.149,109.592 283.816,107.925 241.5,130C 200.764,156.305 181.93,193.805 185,242.5C 192.323,288.485 217.49,320.318 260.5,338C 268.602,340.943 276.936,342.776 285.5,343.5C 283.833,344.167 282.167,344.833 280.5,345.5C 213.423,353.125 161.59,385.125 125,441.5C 114.139,458.889 106.306,477.555 101.5,497.5C 59.6485,456.033 33.4819,406.033 23,347.5C 8.48691,245.359 38.6536,159.192 113.5,89C 190.079,25.1108 277.079,5.11077 374.5,29C 443.634,49.1338 497.8,89.3005 537,149.5C 583.458,227.738 592.124,310.072 563,396.5C 548.663,435.212 526.83,468.878 497.5,497.5 Z"/></g>
<g><path style="opacity:0.998" fill="#fefefe" d="M 497.5,497.5 C 452.193,543.484 397.193,570.317 332.5,578C 249.53,586.449 176.53,563.782 113.5,510C 109.296,505.964 105.296,501.798 101.5,497.5C 106.306,477.555 114.139,458.889 125,441.5C 161.59,385.125 213.423,353.125 280.5,345.5C 283.607,345.649 286.607,345.149 289.5,344C 288.207,343.51 286.873,343.343 285.5,343.5C 276.936,342.776 268.602,340.943 260.5,338C 217.49,320.318 192.323,288.485 185,242.5C 181.93,193.805 200.764,156.305 241.5,130C 283.816,107.925 325.149,109.592 365.5,135C 406.352,166.565 421.519,207.731 411,258.5C 395.699,307.802 362.532,336.302 311.5,344C 331.619,346.297 351.285,350.631 370.5,357C 435.851,383.177 478.184,430.01 497.5,497.5 Z"/></g>
<g><path style="opacity:1" fill="#555555" d="M 285.5,343.5 C 286.873,343.343 288.207,343.51 289.5,344C 286.607,345.149 283.607,345.649 280.5,345.5C 282.167,344.833 283.833,344.167 285.5,343.5 Z"/></g>
</svg>
